HIERARCHY
ROOT Hips
{
	OFFSET 0.00000 0.00000 0.00000
	CHANNELS 6 Xposition Yposition Zposition Zrotation Yrotation Xrotation 
	JOINT LHipJoint
	{
		OFFSET 0 0 0
		CHANNELS 3 Zrotation Yrotation Xrotation
		JOINT LeftHip
		{
			OFFSET 1.66553 -1.82942 0.76350
			CHANNELS 3 Zrotation Yrotation Xrotation
			JOINT LeftKnee
			{
				OFFSET 2.41740 -6.64177 0.00000
				CHANNELS 3 Zrotation Yrotation Xrotation
				JOINT LeftAnkle
				{
					OFFSET 2.71614 -7.46254 0.00000
					CHANNELS 3 Zrotation Yrotation Xrotation
					JOINT LeftToe
					{
						OFFSET 0.08005 -0.21993 1.82495
						CHANNELS 3 Zrotation Yrotation Xrotation
						End Site
						{
							OFFSET 0.00000 -0.00000 0.93441
						}
					}
				}
			}
		}
	}
	JOINT RHipJoint
	{
		OFFSET 0 0 0
		CHANNELS 3 Zrotation Yrotation Xrotation
		JOINT RightHip
		{
			OFFSET -1.63725 -1.82942 0.76350
			CHANNELS 3 Zrotation Yrotation Xrotation
			JOINT RightKnee
			{
				OFFSET -2.40538 -6.60872 0.00000
				CHANNELS 3 Zrotation Yrotation Xrotation
				JOINT RightAnkle
				{
					OFFSET -2.73312 -7.50919 0.00000
					CHANNELS 3 Zrotation Yrotation Xrotation
					JOINT RightToe
					{
						OFFSET -0.15567 -0.42769 1.93504
						CHANNELS 3 Zrotation Yrotation Xrotation
						End Site
						{
							OFFSET -0.00000 -0.00000 1.00100
						}
					}
				}
			}
		}
	}
	JOINT lowerback
	{
		OFFSET 0 0 0
		CHANNELS 3 Zrotation Yrotation Xrotation
		JOINT Chest
		{
			OFFSET 0.00326 2.30118 -0.13017
			CHANNELS 3 Zrotation Yrotation Xrotation
			JOINT Chest2
			{
				OFFSET 0.02887 2.30677 0.00834
				CHANNELS 3 Zrotation Yrotation Xrotation
				JOINT lowerneck
				{
					OFFSET 0 0 0
					CHANNELS 3 Zrotation Yrotation Xrotation
					JOINT Neck
					{
						OFFSET 0.12946 1.68326 0.00713
						CHANNELS 3 Zrotation Yrotation Xrotation
						JOINT Head
						{
							OFFSET -0.24364 1.67243 -0.16079
							CHANNELS 3 Zrotation Yrotation Xrotation
							End Site
							{
								OFFSET -0.09229 1.70819 -0.06383
							}
						}
					}
				}
				JOINT LeftCollar
				{
					OFFSET 0 0 0
					CHANNELS 3 Zrotation Yrotation Xrotation
					JOINT LeftShoulder
					{
						OFFSET 3.28104 0.69567 -0.00556
CHANNELS 3 Zrotation Xrotation Yrotation
						JOINT LeftElbow
						{
OFFSET 0 -5.707060 -0.000000
CHANNELS 3 Zrotation Xrotation Yrotation
							JOINT LeftWrist
							{
OFFSET 0 -3.332430 0.000000
CHANNELS 3 Zrotation Xrotation Yrotation
								JOINT lhand
								{
									OFFSET 0 0 0
CHANNELS 3 Zrotation Xrotation Yrotation
									JOINT LFingers
									{
OFFSET 0 -0.792690 0.000000
CHANNELS 3 Zrotation Xrotation Yrotation
										End Site
										{
OFFSET 0 -0.639090 0.000000
										}
									}
								}
								JOINT LThumb
								{
OFFSET 0 0.000000 0.000000
CHANNELS 3 Zrotation Xrotation Yrotation
									End Site
									{
OFFSET 0 -0.648840 0.648840
									}
								}
							}
						}
					}
				}
				JOINT RightCollar
				{
					OFFSET 0 0 0
					CHANNELS 3 Zrotation Yrotation Xrotation
					JOINT RightShoulder
					{
						OFFSET -3.40955 0.64424 0.14010
CHANNELS 3 Zrotation Xrotation Yrotation
						JOINT RightElbow
						{
OFFSET 0 -5.881760 -0.000000
CHANNELS 3 Zrotation Xrotation Yrotation
							JOINT RightWrist
							{
OFFSET 0 -3.281560 0.000000
CHANNELS 3 Zrotation Xrotation Yrotation
								JOINT rhand
								{
									OFFSET 0 0 0
CHANNELS 3 Zrotation Xrotation Yrotation
									JOINT RFingers
									{
OFFSET 0 -0.863130 0.000000
CHANNELS 3 Zrotation Xrotation Yrotation
										End Site
										{
OFFSET 0 -0.695870 0.000000
										}
									}
								}
								JOINT RThumb
								{
OFFSET 0 0.000000 0.000000
CHANNELS 3 Zrotation Xrotation Yrotation
									End Site
									{
OFFSET 0 -0.706500 0.706500
									}
								}
							}
						}
					}
				}
			}
		}
	}
}
MOTION
Frames: 4
Frame Time: 0.008333333333333333
20.167900 17.698300 -22.902800 -3.302800 -9.598400 3.341000 0.000000 0.000000 0.000000 -17.497700 -9.252400 -15.457300 2.550400 9.928900 28.746900 0.495900 -13.060000 -14.522000 0.937500 -6.167200 -17.270300 0.000000 0.000000 0.000000 26.322900 -2.039200 -13.014800 -2.314800 -9.493200 27.350600 -1.742200 1.449900 -24.553000 -2.186100 -9.243300 26.559500 -5.143700 -0.814300 5.714900 -1.925700 -1.529700 -0.799400 1.028500 -0.666500 -3.957700 10.368400 -10.194000 -3.115600 7.866800 -14.371300 2.639800 0.540000 -6.947300 1.216100 0.000000 -0.000000 0.000000 17.733200 -5.342200 -66.123500 125.406400 -54.688100 90.115900 11.713900 -36.368700 -21.307100 0.000000 0.000000 0.000000 -7.125000 0.000000 0.000000 -17.001000 50.908100 2.537600 0.000000 -0.000000 0.000000 -4.779300 16.382600 17.131400 -129.307600 -53.271000 -93.271900 27.648800 -34.883000 -32.283900 0.000000 0.000000 0.000000 7.125000 0.000000 -0.000000 31.388500 -1.794700 38.663700
20.180486 17.713977 -22.717918 -3.356195 -7.052652 2.890794 0.000000 0.000000 0.000000 -17.676989 -8.045230 -14.571091 2.365794 9.589748 27.658246 0.071934 -17.352803 -12.876156 0.415601 -4.138112 -11.465716 0.000000 0.000000 0.000000 24.083485 4.085049 -15.937567 -3.994848 -12.153443 36.277127 -1.623184 0.965227 -23.814390 -1.808621 -8.455387 24.105943 -2.630008 0.185760 6.690480 -4.306768 -0.148775 -0.353847 -2.977804 -0.066870 -4.131792 8.708883 -11.964190 -2.769338 10.894131 -16.967548 3.767366 1.614703 -8.129242 1.958013 0.000000 0.000000 0.000000 22.898625 -0.509589 -63.049976 128.726190 -53.496451 92.805180 21.078629 5.445216 -12.774163 0.000000 0.000000 0.000000 -7.125000 0.000000 0.000000 -5.684428 43.563852 -0.201532 0.000000 0.000000 0.000000 -12.658560 18.287730 26.771822 -119.201702 -56.518191 -84.993667 37.118657 -8.853247 -22.805730 0.000000 0.000000 0.000000 7.125000 0.000000 0.000000 36.526274 4.175293 44.443404
20.164821 17.783699 -22.502495 -4.640436 -5.490070 2.689203 0.000000 0.000000 0.000000 -16.504454 -8.116940 -12.821506 2.160010 9.191767 26.397070 -0.079454 -18.314902 -12.146688 0.313345 -3.598250 -9.948978 0.000000 0.000000 0.000000 20.957540 6.394777 -17.462491 -3.598888 -11.606514 34.353971 -1.368476 -3.453919 -23.580308 -2.101791 -9.074855 26.029865 0.630742 1.985033 7.159225 -5.141902 2.514393 0.746809 -5.954708 1.218571 -2.981306 7.827105 -13.159858 -6.416698 10.933893 -19.228385 5.474423 1.341044 -8.994656 3.322393 0.000000 0.000000 0.000000 25.927309 2.073460 -55.689133 127.672215 -53.892241 91.955828 24.015899 15.837167 -8.714156 0.000000 0.000000 0.000000 -7.125000 0.000000 0.000000 -2.516530 39.493128 -0.341366 0.000000 0.000000 0.000000 -22.514941 15.191196 37.873755 -91.581917 -59.987611 -61.369891 26.449355 12.648317 -15.709586 0.000000 0.000000 0.000000 7.125000 0.000000 0.000000 33.569962 13.461138 30.863079
20.098322 17.935107 -22.284443 -7.153697 -2.025472 1.644280 0.000000 0.000000 0.000000 -14.203983 -10.929667 -8.460529 1.727779 8.274379 23.550590 0.079222 -16.082426 -12.100976 0.598007 -4.950357 -13.766963 0.000000 0.000000 0.000000 18.578111 2.377992 -17.383331 -2.078993 -9.028227 25.883967 -0.282802 -6.471343 -14.459902 -3.529843 -11.506020 34.007309 2.976208 3.498664 8.611250 -2.671224 4.827872 1.720315 -4.943092 2.383917 -2.549036 6.437224 -14.075029 -5.421652 11.286661 -19.654346 1.229811 1.851343 -9.542881 1.886122 0.000000 0.000000 0.000000 24.462305 7.688054 -49.156747 122.273110 -55.672519 87.543180 28.930939 17.208117 -8.438541 0.000000 0.000000 0.000000 -7.125000 0.000000 0.000000 1.793343 39.594352 0.239154 0.000000 0.000000 0.000000 -33.628674 11.605588 44.661697 -55.237605 -54.895076 -30.411690 5.690840 28.254718 -4.979802 0.000000 0.000000 0.000000 7.125000 0.000000 0.000000 23.662816 24.824517 12.602530
